<svg xmlns="http://www.w3.org/2000/svg" xmlns:xlink="http://www.w3.org/1999/xlink" version="1.1" id="Capa_1" x="0px" y="0px" viewBox="0 0 512 512" style="enable-background:new 0 0 512 512;" xml:space="preserve" width="512px" height="512px" class=""><g><polygon style="fill:#FF6362" points="384,222.94 256,289.06 128,222.94 128,67.197 256,1.076 384,67.197 " data-original="#FFA426" class="" data-old_color="#FFA426"/><polygon style="fill:#DB5B5A" points="384,222.94 256,289.06 256,133.317 384,67.197 " data-original="#FFBC36" class="" data-old_color="#FFBC36"/><polygon style="fill:#FF6362" points="128,67.197 256,133.317 384,67.197 256,1.076 " data-original="#FFE733" class="" data-old_color="#FFE733"/><polygon style="fill:#FF6362" points="256,133.317 384,67.197 256,1.076 " data-original="#FFDA45" class="active-path" data-old_color="#FFDA45"/><polygon style="fill:#323894" points="256,444.803 128,510.924 0,444.803 0,289.06 128,222.94 256,289.06 " data-original="#A934C4" class="" data-old_color="#A934C4"/><polygon style="fill:#202677" points="256,444.803 128,510.924 128,355.181 256,289.06 " data-original="#BF4CD9" class="" data-old_color="#BF4CD9"/><polygon style="fill:#323894" points="0,289.06 128,355.181 256,289.06 128,222.94 " data-original="#DE78F0" class="" data-old_color="#DE78F0"/><polygon style="fill:#323894" points="128,355.181 256,289.06 128,222.94 " data-original="#D261E8" class="" data-old_color="#D261E8"/><polygon style="fill:#C8C3CD" points="512,444.803 384,510.924 256,444.803 256,289.06 384,222.94 512,289.06 " data-original="#1CADB5" class="" data-old_color="#1CADB5"/><polygon style="fill:#86838A" points="512,444.803 384,510.924 384,355.181 512,289.06 " data-original="#00C8C8" class="" data-old_color="#00C8C8"/><polygon style="fill:#C8C3CD" points="256,289.06 384,355.181 512,289.06 384,222.94 " data-original="#96EBE6" class="" data-old_color="#96EBE6"/><polygon style="fill:#C8C3CD" points="384,355.181 512,289.06 384,222.94 " data-original="#64E1DC" class="" data-old_color="#64E1DC"/></g> </svg>