<?xml version="1.0"?>
<svg xmlns="http://www.w3.org/2000/svg" height="512px" viewBox="-11 0 512 512" width="512px" class=""><g><path d="m466.152344 349.828125-88.445313-44.222656c-7.414062-3.707031-16.421875-.703125-20.125 6.707031-1.078125 2.15625-1.574219 4.449219-1.570312 6.710938h-222.074219c.003906-2.261719-.492188-4.554688-1.570312-6.710938-3.707032-7.410156-12.714844-10.414062-20.125-6.707031l-88.449219 44.222656c-15.121094 7.5625-23.792969 19.300781-23.792969 32.207031.00390625 12.90625 8.671875 24.644532 23.792969 32.203125l176.902343 88.453125c12.414063 6.203125 28.347657 9.308594 44.277344 9.308594 15.9375 0 31.867188-3.101562 44.285156-9.3125l176.894532-88.449219c15.121094-7.558593 23.792968-19.296875 23.796875-32.203125-.003907-12.90625-8.675781-24.644531-23.796875-32.207031zm0 0" fill="#008adf" data-original="#008ADF" class="" style="fill:#C8C3CD" data-old_color="#008adf"/><path d="m466.152344 349.828125-88.445313-44.222656c-7.414062-3.707031-16.421875-.703125-20.125 6.707031-1.078125 2.15625-1.574219 4.449219-1.570312 6.710938h-111.039063v192.976562c15.933594 0 31.867188-3.101562 44.285156-9.3125l176.894532-88.449219c15.121094-7.558593 23.792968-19.296875 23.792968-32.203125s-8.671874-24.644531-23.792968-32.207031zm0 0" fill="#0065a3" data-original="#0065A3" class="active-path" style="fill:#C8C3CD" data-old_color="#0065a3"/><path d="m466.152344 223.808594-88.445313-44.226563c-7.410156-3.707031-16.421875-.699219-20.125 6.707031-1.082031 2.15625-1.574219 4.449219-1.570312 6.710938h-222.074219c.003906-2.261719-.492188-4.554688-1.570312-6.710938-3.707032-7.410156-12.71875-10.414062-20.125-6.707031l-88.449219 44.226563c-15.121094 7.558594-23.792969 19.296875-23.792969 32.203125 0 12.902343 8.671875 24.640625 23.792969 32.199219l176.898437 88.453124c12.417969 6.207032 28.347656 9.3125 44.285156 9.3125 15.929688-.003906 31.867188-3.105468 44.28125-9.3125l176.894532-88.449218c15.121094-7.5625 23.796875-19.296875 23.796875-32.203125-.003907-12.90625-8.675781-24.644531-23.796875-32.203125zm0 0" fill="#54e360" data-original="#54E360" class="" style="fill:#FF6362" data-old_color="#54e360"/><path d="m466.152344 223.808594-88.445313-44.226563c-7.410156-3.707031-16.421875-.699219-20.125 6.707031-1.082031 2.15625-1.574219 4.449219-1.570312 6.710938h-111.039063v192.976562c15.933594 0 31.871094-3.105468 44.285156-9.3125l176.894532-88.449218c15.121094-7.5625 23.792968-19.296875 23.792968-32.203125s-8.671874-24.644531-23.792968-32.203125zm0 0" fill="#00ab5e" data-original="#00AB5E" class="" style="fill:#FF6362" data-old_color="#00ab5e"/><path d="m466.152344 97.78125-176.894532-88.445312c-12.039062-6.019532-27.765624-9.335938-44.285156-9.335938-16.519531 0-32.246094 3.316406-44.28125 9.335938l-176.902344 88.445312c-15.117187 7.5625-23.789062 19.300781-23.789062 32.207031 0 12.902344 8.671875 24.640625 23.792969 32.199219l176.898437 88.453125c12.035156 6.019531 27.765625 9.332031 44.28125 9.332031 16.519532 0 32.246094-3.3125 44.285156-9.332031l176.894532-88.453125c15.121094-7.558594 23.792968-19.292969 23.792968-32.199219s-8.671874-24.644531-23.792968-32.207031zm0 0" fill="#ffd400" data-original="#FFD400" class="" style="fill:#202677" data-old_color="#ffd400"/><path d="m466.152344 97.78125-176.894532-88.445312c-12.039062-6.019532-27.765624-9.335938-44.285156-9.335938v259.976562c16.519532 0 32.246094-3.316406 44.285156-9.335937l176.894532-88.449219c15.121094-7.5625 23.792968-19.296875 23.792968-32.203125s-8.671874-24.644531-23.792968-32.207031zm0 0" fill="#ff9f04" data-original="#FF9F04" class="" style="fill:#202677" data-old_color="#ff9f04"/></g> </svg>
