<?xml version="1.0"?>
<svg
   xmlns:dc="http://purl.org/dc/elements/1.1/"
   xmlns:cc="http://creativecommons.org/ns#"
   xmlns:rdf="http://www.w3.org/1999/02/22-rdf-syntax-ns#"
   xmlns:svg="http://www.w3.org/2000/svg"
   xmlns="http://www.w3.org/2000/svg"
   viewBox="0 0 1333.3333 1333.3333"
   height="1333.3333"
   width="1333.3333"
   xml:space="preserve"
   id="svg2"
   version="1.1"><metadata
     id="metadata8"><rdf:RDF><cc:Work
         rdf:about=""><dc:format>image/svg+xml</dc:format><dc:type
           rdf:resource="http://purl.org/dc/dcmitype/StillImage" /></cc:Work></rdf:RDF></metadata><defs
     id="defs6"><clipPath
       id="clipPath18"
       clipPathUnits="userSpaceOnUse"><path
         id="path16"
         d="M 0,1000 H 1000 V 0 H 0 Z" /></clipPath><clipPath
       id="clipPath34"
       clipPathUnits="userSpaceOnUse"><path
         id="path32"
         d="M 224.225,787.718 H 697.603 V 404.094 H 224.225 Z" /></clipPath></defs><g
     transform="matrix(1.3333333,0,0,-1.3333333,0,1333.3333)"
     id="g10"><g
       id="g12"><g
         clip-path="url(#clipPath18)"
         id="g14"><g
           transform="translate(881.5615,49.4248)"
           id="g20"><path
             id="path22"
             style="fill:#ffffff;fill-opacity:1;fill-rule:nonzero;stroke:none"
             d="m 0,0 h -763.123 c -38.115,0 -69.013,30.898 -69.013,69.014 v 763.123 c 0,38.115 30.898,69.013 69.013,69.013 L 0,901.15 c 38.115,0 69.014,-30.898 69.014,-69.013 V 69.014 C 69.014,30.898 38.115,0 0,0" /></g><g
           transform="translate(583.9628,212.2822)"
           id="g24"><path
             id="path26"
             style="fill:#3d3e79;fill-opacity:1;fill-rule:nonzero;stroke:none"
             d="m 0,0 h -249.718 c -17.589,0 -31.847,14.259 -31.847,31.848 v 319.928 c 0,17.589 14.258,31.848 31.847,31.848 H 0 c 105.936,0 191.812,-85.877 191.812,-191.812 C 191.812,85.877 105.936,0 0,0" /></g><g
           id="g28"><g
             id="g30" /><g
             id="g42"><g
               style="opacity:0.89999402"
               id="g40"
               clip-path="url(#clipPath34)"><g
                 id="g38"
                 transform="translate(505.7909,404.0937)"><path
                   id="path36"
                   style="fill:#f26a6a;fill-opacity:1;fill-rule:nonzero;stroke:none"
                   d="m 0,0 h -249.718 c -17.59,0 -31.848,14.259 -31.848,31.849 v 319.927 c 0,17.59 14.258,31.849 31.848,31.849 H 0 c 105.935,0 191.812,-85.878 191.812,-191.813 v 0 C 191.812,85.877 105.935,0 0,0" /></g></g></g></g></g></g></g></svg>